<svg width="68" height="31" viewBox="0 0 68 31" fill="none" xmlns="http://www.w3.org/2000/svg">
<path d="M5.66925 2.75922C0.728514 2.75922 0.000976562 7.30822 0.000976562 16.2784C0.000976562 25.2486 1.14115 30 6.85285 30.0106C15.8982 30.0213 21.9682 25.4616 21.9682 17.5568C21.9682 11.2393 16.7669 2.75922 5.66925 2.75922Z" fill="#FFC100"/>
<path d="M17.0279 0.53267C20.7633 0.53267 23.8146 3.49432 23.8146 7.13778C23.8146 10.7812 20.7742 13.7429 17.0279 13.7429C13.2816 13.7429 10.2412 10.7812 10.2412 7.13778C10.2412 3.49432 13.2816 0.53267 17.0279 0.53267ZM17.0279 0C12.9776 0 9.69824 3.19602 9.69824 7.13778C9.69824 11.0795 12.9776 14.2756 17.0279 14.2756C21.0782 14.2756 24.3576 11.0795 24.3576 7.13778C24.3576 3.19602 21.0782 0 17.0279 0Z" fill="#1C232B"/>
<path d="M4.3877 23.2777V14.169C4.3877 14.0412 4.49628 13.9346 4.62659 13.9346H8.06881C11.207 13.9346 13.053 16.1399 13.053 18.7287C13.053 21.3174 11.2287 23.5227 8.06881 23.5227H4.62659C4.49628 23.512 4.3877 23.4055 4.3877 23.2777ZM6.64632 21.4133C6.64632 21.5412 6.7549 21.6477 6.88521 21.6477H7.85164C9.77364 21.6477 10.7075 20.2414 10.7075 18.718C10.7075 17.1946 9.77364 15.7883 7.85164 15.7883H6.88521C6.7549 15.7883 6.64632 15.8949 6.64632 16.0227V21.4133Z" fill="#1C232B"/>
<path d="M20.8497 20.6676H16.1805C16.0827 20.6676 16.0067 20.7528 16.0176 20.8487C16.1262 21.6158 16.7125 22.0206 17.6138 22.0206C18.2219 22.0206 18.6237 21.8714 18.83 21.5412C18.8734 21.4666 18.9494 21.424 19.0472 21.424H20.7194C20.8823 21.424 21.0017 21.5838 20.9583 21.7436C20.5891 22.8942 19.2861 23.6399 17.6138 23.6399C15.2792 23.6399 13.835 22.3402 13.835 20.0923C13.835 17.8871 15.3009 16.5447 17.5378 16.5447C19.677 16.5447 21.132 17.8445 21.132 19.7514C21.132 20.0284 21.1212 20.2202 21.0995 20.4652C21.0886 20.5717 20.98 20.6676 20.8497 20.6676ZM18.8408 19.3466C18.9169 19.3466 18.982 19.2827 18.9712 19.2081C18.906 18.3984 18.4065 17.9829 17.5269 17.9829C16.6365 17.9829 16.0827 18.4624 16.0067 19.2081C15.9959 19.2827 16.061 19.3466 16.137 19.3466H18.8408Z" fill="#1C232B"/>
<path d="M22.1861 21.424H23.8692C23.9887 21.424 24.0755 21.5093 24.1081 21.6158C24.2167 21.978 24.6293 22.2124 25.2048 22.2124C25.6718 22.2124 25.9975 21.9887 25.9975 21.5945C25.9975 21.2855 25.8455 21.1044 25.2591 20.9659L23.8258 20.6144C22.729 20.348 22.0992 19.6662 22.0992 18.6435C22.0992 17.3757 23.272 16.5341 25.0311 16.5341C26.8337 16.5341 27.9304 17.1733 28.0824 18.3452C28.1041 18.4943 27.9847 18.6115 27.8327 18.6115H26.1495C26.041 18.6115 25.9432 18.5263 25.9215 18.4198C25.8346 18.0682 25.5089 17.8871 24.9985 17.8871C24.5316 17.8871 24.2167 18.1108 24.2167 18.4304C24.2167 18.7394 24.4121 18.9311 24.9659 19.0696L26.421 19.4638C27.5069 19.7408 28.1584 20.3907 28.1584 21.4027C28.1584 22.7983 26.9748 23.6293 25.1505 23.6293C23.3371 23.6293 22.0884 22.8622 21.9255 21.6904C21.9146 21.5519 22.0341 21.424 22.1861 21.424Z" fill="#1C232B"/>
<path d="M29.0488 14.8934C29.0488 14.169 29.6026 13.5831 30.3845 13.5831C31.1663 13.5831 31.7418 14.169 31.7418 14.8934C31.7418 15.6072 31.1771 16.1932 30.3845 16.1932C29.6026 16.1932 29.0488 15.6072 29.0488 14.8934ZM29.3094 23.267V17.0135C29.3094 16.875 29.418 16.7684 29.5592 16.7684H31.2314C31.3726 16.7684 31.4812 16.875 31.4812 17.0135V23.267C31.4812 23.4055 31.3726 23.512 31.2314 23.512H29.5592C29.418 23.512 29.3094 23.4055 29.3094 23.267Z" fill="#1C232B"/>
<path d="M38.0174 16.8004H39.6896C39.8308 16.8004 39.9394 16.907 39.9394 17.0455V23.0646C39.9285 24.3537 39.4616 25.3125 38.6255 25.8771C38.0065 26.3033 37.1704 26.4737 36.1931 26.4737C35.2158 26.4737 34.51 26.3246 33.8368 25.9304C33.2395 25.5682 32.8595 24.9716 32.7292 24.3537C32.6966 24.2046 32.816 24.0661 32.9681 24.0661H34.6295C34.738 24.0661 34.8249 24.13 34.8575 24.2259C35.0204 24.652 35.357 24.9077 36.1497 24.9077C37.1487 24.9077 37.7676 24.4815 37.7676 23.2884V22.4041C37.431 23.0646 36.5189 23.4908 35.6285 23.4908C33.6087 23.4908 32.5771 22.0526 32.5771 20.071C32.5771 18.0895 33.6956 16.6193 35.661 16.6193C36.5949 16.6193 37.431 17.0668 37.7676 17.7592V17.0455C37.7676 16.907 37.8762 16.8004 38.0174 16.8004ZM37.8654 20.103C37.8654 19.1335 37.2573 18.3558 36.2257 18.3558C35.2484 18.3558 34.7272 19.0909 34.7272 20.103C34.7272 21.1151 35.2593 21.8501 36.2257 21.8501C37.2573 21.8501 37.8654 21.0724 37.8654 20.103Z" fill="#1C232B"/>
<path d="M41.2969 23.267V17.0135C41.2969 16.875 41.4055 16.7684 41.5466 16.7684H43.2297C43.3709 16.7684 43.4795 16.875 43.4795 17.0135V17.7486C43.8813 16.9922 44.6631 16.5873 45.7055 16.5873C47.3778 16.5873 48.2139 17.5142 48.2139 19.3466V23.267C48.2139 23.4055 48.1053 23.5121 47.9642 23.5121H46.2702C46.129 23.5121 46.0204 23.4055 46.0204 23.267V20.0497C46.0204 18.9204 45.6947 18.3984 44.8151 18.3984C43.9464 18.3984 43.4903 18.9524 43.4903 19.9964V23.2777C43.4903 23.4162 43.3818 23.5227 43.2406 23.5227H41.5575C41.4163 23.5121 41.2969 23.4055 41.2969 23.267Z" fill="#1C232B"/>
<path d="M57.8454 22.01V23.2671C57.8454 23.4056 57.7368 23.5121 57.5956 23.5121H56.3903C55.3587 23.5121 53.9579 23.3416 53.9579 21.0831V18.3985H53.1218C52.9807 18.3985 52.8721 18.2919 52.8721 18.1534V16.9496C52.8721 16.8111 52.9807 16.7046 53.1218 16.7046H53.9579V14.9467C53.9579 14.8083 54.0665 14.7017 54.2077 14.7017H55.8908C56.032 14.7017 56.1406 14.8083 56.1406 14.9467V16.7046H57.4436C57.5848 16.7046 57.6934 16.8111 57.6934 16.9496V18.1534C57.6934 18.2919 57.5848 18.3985 57.4436 18.3985H56.1406V20.5718C56.1406 21.5625 56.5532 21.7756 57.0961 21.7756C57.2481 21.7756 57.4219 21.7756 57.5848 21.7649C57.7259 21.7649 57.8454 21.8715 57.8454 22.01Z" fill="#1C232B"/>
<path d="M49.2568 14.8934C49.2568 14.169 49.8106 13.5831 50.5925 13.5831C51.3743 13.5831 51.9498 14.169 51.9498 14.8934C51.9498 15.6072 51.3852 16.1932 50.5925 16.1932C49.8106 16.1932 49.2568 15.6072 49.2568 14.8934ZM49.5066 23.267V17.0135C49.5066 16.875 49.6152 16.7684 49.7563 16.7684H51.4286C51.5698 16.7684 51.6783 16.875 51.6783 17.0135V23.267C51.6783 23.4055 51.5698 23.512 51.4286 23.512H49.7563C49.626 23.512 49.5066 23.4055 49.5066 23.267Z" fill="#1C232B"/>
<path d="M65.9468 16.8431C65.8925 16.7578 65.7948 16.7152 65.697 16.7152H64.1334C64.0248 16.7152 63.9271 16.7791 63.8945 16.8857L62.3851 21.5412L60.8215 16.8857C60.7889 16.7898 60.6912 16.7152 60.5826 16.7152H58.9646C58.8669 16.7152 58.7692 16.7578 58.7149 16.8431C58.6606 16.9283 58.6389 17.0242 58.6823 17.12L61.1038 23.4801C61.1581 23.608 61.1907 23.7571 61.1907 23.9063C61.1907 24.1087 61.1255 24.2898 61.0061 24.4602C60.8866 24.62 60.702 24.7159 60.4631 24.7479C60.398 24.7479 60.3328 24.7479 60.2677 24.7479C60.1699 24.7479 59.7899 24.7372 59.4967 24.7372C59.3555 24.7372 59.2469 24.8438 59.2469 24.9823V26.2181C59.2469 26.3565 59.3555 26.4631 59.4967 26.4631H60.5174C61.2124 26.4631 61.7553 26.3352 62.1462 26.0796C62.5371 25.8239 62.852 25.3977 63.0692 24.8118L65.9794 17.12C66.0228 17.0348 66.0011 16.9283 65.9468 16.8431Z" fill="#1C232B"/>
<path d="M66.5435 23.6399C66.6738 23.6399 66.8041 23.6612 66.9235 23.6932C67.043 23.7251 67.1624 23.7784 67.2602 23.8317C67.3687 23.8956 67.4556 23.9595 67.5425 24.0447C67.6294 24.1299 67.7054 24.2258 67.7597 24.3217C67.8248 24.4282 67.8682 24.5348 67.9008 24.652C67.9334 24.7692 67.9551 24.897 67.9551 25.0248C67.9551 25.1527 67.9334 25.2699 67.9008 25.3977C67.8682 25.5149 67.814 25.6321 67.7597 25.728C67.6945 25.8345 67.6294 25.9197 67.5425 26.005C67.4556 26.0902 67.3579 26.1648 67.2602 26.218C67.1516 26.2819 67.043 26.3246 66.9235 26.3565C66.8041 26.3885 66.6738 26.4098 66.5435 26.4098C66.4132 26.4098 66.2829 26.3885 66.1634 26.3565C66.044 26.3246 65.9354 26.2713 65.8268 26.218C65.7182 26.1541 65.6313 26.0902 65.5445 26.005C65.4576 25.9197 65.3816 25.8238 65.3273 25.728C65.2621 25.6214 65.2187 25.5149 65.1861 25.3977C65.1536 25.2805 65.1318 25.1527 65.1318 25.0248C65.1318 24.897 65.1536 24.7692 65.1861 24.652C65.2187 24.5348 65.273 24.4176 65.3273 24.3217C65.3924 24.2152 65.4576 24.1299 65.5445 24.0447C65.6313 23.9595 65.7291 23.8849 65.8268 23.8317C65.9354 23.7677 66.044 23.7251 66.1634 23.6932C66.2829 23.6505 66.4132 23.6399 66.5435 23.6399ZM66.5435 26.1967C66.6521 26.1967 66.7607 26.1861 66.8584 26.1541C66.9561 26.1221 67.0538 26.0902 67.1407 26.0369C67.2276 25.9836 67.3036 25.9304 67.3796 25.8558C67.4556 25.7812 67.5099 25.7067 67.5642 25.6214C67.6185 25.5362 67.6511 25.4403 67.6836 25.3444C67.7162 25.2486 67.7271 25.142 67.7271 25.0355C67.7271 24.929 67.7162 24.8224 67.6836 24.7159C67.6511 24.62 67.6185 24.5241 67.5642 24.4389C67.5099 24.3537 67.4556 24.2684 67.3796 24.2045C67.3036 24.1299 67.2276 24.0767 67.1407 24.0234C67.0538 23.9701 66.9561 23.9382 66.8584 23.9062C66.7607 23.8743 66.6521 23.8636 66.5435 23.8636C66.4349 23.8636 66.3263 23.8743 66.2286 23.9062C66.1308 23.9382 66.0331 23.9701 65.9571 24.0234C65.8702 24.0767 65.7942 24.1406 65.7182 24.2045C65.6531 24.2791 65.5879 24.3537 65.5336 24.4389C65.4793 24.5241 65.4467 24.62 65.4142 24.7159C65.3816 24.8118 65.3707 24.9183 65.3707 25.0355C65.3707 25.1953 65.4033 25.3551 65.4576 25.4936C65.5119 25.6321 65.5988 25.7599 65.7073 25.8665C65.8159 25.973 65.9354 26.0582 66.0765 26.1115C66.2286 26.1648 66.3806 26.1967 66.5435 26.1967ZM66.5326 24.1832C66.7715 24.1832 66.9452 24.2258 67.0538 24.3111C67.1624 24.3963 67.2167 24.5135 67.2167 24.6733C67.2167 24.7905 67.1841 24.8863 67.1299 24.9716C67.0756 25.0568 66.9778 25.1207 66.8584 25.1527C66.891 25.174 66.9127 25.1953 66.9344 25.2166C66.9561 25.2379 66.9778 25.2699 66.9887 25.3018L67.3362 25.8771H66.9452C66.891 25.8771 66.8475 25.8558 66.8258 25.8132L66.5543 25.3125C66.5435 25.2912 66.5218 25.2805 66.5109 25.2699C66.5 25.2592 66.4675 25.2592 66.4349 25.2592H66.3263V25.8771H65.9137V24.1832H66.5326ZM66.5 24.9716C66.5652 24.9716 66.6195 24.9609 66.6629 24.9503C66.7064 24.9396 66.7389 24.9183 66.7606 24.897C66.7824 24.8757 66.8041 24.8544 66.8149 24.8224C66.8258 24.7905 66.8258 24.7585 66.8258 24.7159C66.8258 24.6733 66.8258 24.6413 66.8149 24.6094C66.8041 24.5774 66.7932 24.5561 66.7715 24.5348C66.7498 24.5135 66.7172 24.5028 66.6846 24.4922C66.6521 24.4815 66.5978 24.4815 66.5435 24.4815H66.3372V24.9609H66.5V24.9716Z" fill="#1C232B"/>
</svg>
