<svg width="25" height="25" viewBox="0 0 25 25" fill="none" xmlns="http://www.w3.org/2000/svg">
<path d="M24 3.7C24 3.3134 23.6866 3 23.3 3H1.7C1.3134 3 1 3.3134 1 3.7V21.3C1 21.6866 1.3134 22 1.7 22H23.3C23.6866 22 24 21.6866 24 21.3V3.7ZM21.7 7.36864C21.7 7.60639 21.5793 7.82788 21.3796 7.95679L12.8796 13.4425C12.6485 13.5917 12.3515 13.5917 12.1204 13.4425L3.62042 7.95679C3.42067 7.82788 3.3 7.60639 3.3 7.36864V6.65989C3.3 6.10551 3.91378 5.77112 4.37958 6.07174L12.1204 11.0675C12.3515 11.2167 12.6485 11.2167 12.8796 11.0675L20.6204 6.07174C21.0862 5.77112 21.7 6.10551 21.7 6.65989V7.36864Z" fill="white"/>
</svg>
