<svg width="25" height="25" viewBox="0 0 25 25" fill="none" xmlns="http://www.w3.org/2000/svg">
<path d="M22.6562 0.585967H2.34375C1.88287 0.581276 1.43896 0.759608 1.10941 1.08183C0.779865 1.40406 0.591604 1.84385 0.585938 2.30472V22.6992C0.592628 23.1594 0.78134 23.5982 1.11078 23.9196C1.44021 24.241 1.88354 24.4188 2.34375 24.4141H22.6562C23.1172 24.4177 23.5608 24.2388 23.8901 23.9164C24.2195 23.594 24.4079 23.1543 24.4141 22.6934V2.29886C24.4058 1.83934 24.2166 1.40164 23.8874 1.0809C23.5583 0.760155 23.1158 0.582291 22.6562 0.585967ZM7.65039 20.8985H4.11328V9.51761H7.65039V20.8985ZM5.89258 7.96683C5.48689 7.96721 5.0902 7.84726 4.75269 7.62216C4.41519 7.39705 4.15203 7.0769 3.99651 6.7022C3.84099 6.3275 3.8001 5.9151 3.87901 5.51716C3.95792 5.11921 4.15308 4.75362 4.43981 4.46662C4.72654 4.17961 5.09195 3.9841 5.48982 3.90481C5.88768 3.82552 6.30013 3.86602 6.67497 4.02118C7.04982 4.17635 7.37022 4.4392 7.59565 4.77649C7.82108 5.11378 7.94141 5.51036 7.94141 5.91604C7.94089 6.18569 7.88721 6.45258 7.78343 6.70145C7.67965 6.95032 7.52781 7.17629 7.3366 7.36641C7.14539 7.55653 6.91857 7.70708 6.66911 7.80943C6.41965 7.91179 6.15245 7.96395 5.88281 7.96292L5.89258 7.96683ZM20.8984 20.8985H17.3613V15.3614C17.3613 14.043 17.3379 12.3457 15.5234 12.3457C13.709 12.3457 13.4004 13.7832 13.4004 15.2754V20.8985H9.86914V9.51761H13.2598V11.0801H13.3066C13.7793 10.1856 14.9316 9.24222 16.6523 9.24222C20.2344 9.2344 20.8984 11.5918 20.8984 14.6485V20.8985Z" fill="white"/>
</svg>
