<svg preserveAspectRatio="none" width="100%" height="100%" overflow="visible" style="display: block;" viewBox="0 0 33 28" fill="none" xmlns="http://www.w3.org/2000/svg">
<path id="Vector" fill-rule="evenodd" clip-rule="evenodd" d="M33 2.8H0V0H33V2.8ZM20.504 8.414C18.7164 8.414 17.002 9.13704 15.7379 10.4241C14.4739 11.7111 13.7638 13.4567 13.7638 15.2768C13.7638 17.0969 14.4739 18.8425 15.7379 20.1295C17.002 21.4166 18.7164 22.1396 20.504 22.1396C22.2916 22.1396 24.006 21.4166 25.2701 20.1295C26.5341 18.8425 27.2443 17.0969 27.2443 15.2768C27.2443 13.4567 26.5341 11.7111 25.2701 10.4241C24.006 9.13704 22.2916 8.414 20.504 8.414ZM11.0138 15.274C11.0142 13.7445 11.3713 12.2369 12.0556 10.8752C12.7399 9.5136 13.7319 8.33682 14.95 7.44168C16.1681 6.54654 17.5775 5.95861 19.0623 5.72625C20.5471 5.49389 22.0648 5.62373 23.4907 6.10511C24.9166 6.58648 26.2099 7.40562 27.2643 8.49517C28.3186 9.58472 29.1038 10.9135 29.5554 12.3724C30.0069 13.8312 30.1119 15.3783 29.8617 16.8865C29.6114 18.3946 29.0131 19.8208 28.116 21.0476L32.8377 25.8524L30.8907 27.832L26.1718 23.0272C24.7604 24.0972 23.0846 24.7466 21.3316 24.9029C19.5787 25.0591 17.8176 24.716 16.2451 23.912C14.6726 23.108 13.3506 21.8746 12.4268 20.3497C11.503 18.8248 11.0137 17.0685 11.0138 15.2768M8.25 15.4H0V12.6H8.25V15.4ZM11 28H0V25.2H11V28Z" fill="url(#paint0_linear_20_131)"/>
<defs>
<linearGradient id="paint0_linear_20_131" x1="16.5" y1="0" x2="16.5" y2="28" gradientUnits="userSpaceOnUse">
<stop stop-color="#FFC93C"/>
<stop offset="1" stop-color="#B68E27"/>
</linearGradient>
</defs>
</svg>
