<svg preserveAspectRatio="none" width="100%" height="100%" overflow="visible" style="display: block;" viewBox="0 0 29 29" fill="none" xmlns="http://www.w3.org/2000/svg">
<path id="Vector" d="M5.89404 0.883826C5.89402 0.721906 5.84952 0.563103 5.76541 0.424745C5.68129 0.286388 5.56079 0.173793 5.41705 0.0992475C5.27331 0.0247024 5.11186 -0.00892843 4.95031 0.00202519C4.78876 0.0129788 4.63332 0.0680961 4.50096 0.161362C2.56457 1.52497 1.41664 2.71533 0.766071 3.86561C0.100179 5.04418 0.00117849 6.10136 0.00117849 7.07133C0.00117849 8.40311 0.631714 9.5864 1.60993 10.3407C1.18907 10.7358 0.855816 11.2148 0.631714 11.7467C0.0978214 12.9665 0 14.461 0 15.6596C0 17.6195 0.312321 20.6214 0.883929 23.1447C1.16914 24.4022 1.52979 25.5938 1.97411 26.4918C2.19568 26.9385 2.46086 27.3593 2.78496 27.6798C3.11143 28.0039 3.56282 28.2856 4.12854 28.2856C4.69425 28.2856 5.14446 28.0039 5.47211 27.6798C5.79504 27.3593 6.06021 26.9373 6.28061 26.4906C6.72493 25.5938 7.08439 24.4022 7.36843 23.1435C7.93886 20.6214 8.25 17.6195 8.25 15.6596C8.25 14.461 8.15454 12.9677 7.62182 11.7467C7.39786 11.2143 7.0646 10.7349 6.64361 10.3395C7.14384 9.95413 7.54891 9.45907 7.82762 8.89245C8.10634 8.32583 8.25124 7.70278 8.25118 7.07133C8.25118 5.74425 7.60061 4.82379 7.0785 4.08483L6.91586 3.85265C6.369 3.063 5.89404 2.26275 5.89404 0.883826ZM4.09554 11.1963H4.15918C4.68836 11.2022 5.049 11.3401 5.313 11.531C5.59036 11.7298 5.81979 12.0378 6.00129 12.455C6.37843 13.3189 6.48214 14.4987 6.48214 15.6608C6.48214 17.484 6.1875 20.3538 5.64536 22.7558C5.37193 23.9603 5.049 24.995 4.69661 25.7069C4.51982 26.0652 4.35718 26.2962 4.22636 26.4246C4.19684 26.4556 4.16404 26.4833 4.12854 26.5071C4.09262 26.4833 4.05942 26.4557 4.02954 26.4246C3.89871 26.295 3.73607 26.0652 3.55811 25.7057C3.20454 24.9939 2.88161 23.9591 2.60818 22.7546C2.06486 20.3538 1.76786 17.484 1.76786 15.6596C1.76786 14.4999 1.87275 13.3201 2.25107 12.4562C2.43336 12.0398 2.66357 11.7318 2.94171 11.5322C3.20571 11.3401 3.56754 11.2022 4.09554 11.1963ZM4.158 9.42847H4.09671C3.47648 9.42103 2.88417 9.1694 2.44822 8.72816C2.01227 8.28691 1.76781 7.69161 1.76786 7.07133C1.76786 6.25104 1.84918 5.54036 2.30411 4.73658C2.65768 4.10958 3.26346 3.38358 4.31946 2.51379C4.57286 3.51086 5.03368 4.2404 5.46032 4.85915L5.60175 5.06068C6.15686 5.85975 6.48214 6.32883 6.48214 7.07133C6.4822 7.691 6.23823 8.28578 5.80304 8.72693C5.36785 9.16807 4.77762 9.4201 4.158 9.42847ZM12.375 2.94633C10.9489 2.94633 9.62186 3.36825 8.51046 4.09425C8.34311 3.82554 8.17693 3.59454 8.03786 3.3989L7.88464 3.18204C7.75745 3.00188 7.63753 2.8167 7.52518 2.62693C8.81647 1.7796 10.3072 1.2854 11.849 1.19356C13.3907 1.10172 14.9296 1.41545 16.3123 2.10348C17.6951 2.79152 18.8734 3.82985 19.73 5.11504C20.5865 6.40024 21.0914 7.88743 21.1942 9.42847H23.8661C25.038 9.42847 26.162 9.89395 26.9908 10.7225C27.8196 11.5511 28.2854 12.675 28.2857 13.8469V21.5076C28.2859 22.0881 28.1717 22.663 27.9496 23.1993C27.7276 23.7357 27.4021 24.223 26.9916 24.6336C26.5812 25.0441 26.094 25.3697 25.5577 25.5919C25.0214 25.8141 24.4466 25.9285 23.8661 25.9285H16.2054C15.0332 25.9285 13.909 25.4628 13.0802 24.634C12.2514 23.8051 11.7857 22.681 11.7857 21.5088V18.8382C10.9351 18.7819 10.0971 18.6029 9.29775 18.3066C9.35668 17.6466 9.39557 17.0173 9.41561 16.4421C10.1463 16.7792 10.9454 16.9961 11.7857 17.0656V13.8481C11.7857 12.6759 12.2514 11.5518 13.0802 10.723C13.909 9.89411 15.0332 9.42847 16.2054 9.42847H19.4229C19.2751 7.66101 18.4685 6.01363 17.163 4.81298C15.8576 3.61232 14.1486 2.94607 12.375 2.94633ZM21.1365 11.1963C20.8776 13.1164 19.9954 14.8983 18.6255 16.2682C17.2555 17.6382 15.4736 18.5204 13.5536 18.7793V21.5088C13.5536 22.2121 13.833 22.8866 14.3303 23.3839C14.8276 23.8812 15.5021 24.1606 16.2054 24.1606H23.8661C24.5694 24.1606 25.2439 23.8812 25.7412 23.3839C26.2385 22.8866 26.5179 22.2121 26.5179 21.5088V13.8481C26.5179 13.1448 26.2385 12.4703 25.7412 11.973C25.2439 11.4757 24.5694 11.1963 23.8661 11.1963H21.1365ZM19.3486 11.1963H16.2054C15.5021 11.1963 14.8276 11.4757 14.3303 11.973C13.833 12.4703 13.5536 13.1448 13.5536 13.8481V16.9914C15.0013 16.746 16.3369 16.0563 17.3752 15.018C18.4136 13.9797 19.1032 12.6441 19.3486 11.1963Z" fill="url(#paint0_linear_20_109)"/>
<defs>
<linearGradient id="paint0_linear_20_109" x1="14.1429" y1="0" x2="14.1429" y2="28.2856" gradientUnits="userSpaceOnUse">
<stop stop-color="#FFC93C"/>
<stop offset="1" stop-color="#B68E27"/>
</linearGradient>
</defs>
</svg>
