<svg width="22" height="22" viewBox="0 0 22 22" fill="none" xmlns="http://www.w3.org/2000/svg">
<path d="M18.5488 10.3437C18.1823 9.99271 17.7015 9.78565 17.1947 9.76057C16.6878 9.73548 16.1889 9.89403 15.7896 10.2071L14.157 5.26538C14.0211 4.84733 13.767 4.47763 13.4253 4.20105C13.0837 3.92447 12.6692 3.75288 12.232 3.70705L4.36609 2.85455C4.16221 2.83316 3.95614 2.85764 3.76294 2.92617C3.56975 2.99471 3.39432 3.10558 3.2495 3.25066C3.10468 3.39574 2.99413 3.57137 2.92595 3.76469C2.85776 3.95801 2.83367 4.16413 2.85542 4.36796L3.70792 12.232C3.75375 12.6692 3.92535 13.0837 4.20193 13.4254C4.4785 13.767 4.8482 14.0212 5.26625 14.157L10.2071 15.7795C9.90476 16.1495 9.7396 16.6126 9.73959 17.0904C9.74128 17.6369 9.95912 18.1605 10.3455 18.5469C10.732 18.9333 11.2556 19.1512 11.8021 19.1529C12.3492 19.1514 12.8734 18.9336 13.2605 18.547L18.5497 13.2587C18.9362 12.872 19.1533 12.3475 19.1533 11.8008C19.1533 11.254 18.9362 10.7296 18.5497 10.3428L18.5488 10.3437ZM5.55042 13.2862C5.3003 13.2035 5.07921 13.0507 4.91345 12.8459C4.74769 12.6411 4.64425 12.3931 4.61542 12.1312L3.79042 4.44038L7.46626 8.11621C7.40086 8.30827 7.39032 8.51476 7.43582 8.71248C7.48132 8.9102 7.58106 9.09131 7.72384 9.23546C7.82241 9.33828 7.94052 9.42037 8.07124 9.47692C8.20196 9.53348 8.34266 9.56336 8.48508 9.56482C8.62751 9.56628 8.76879 9.53928 8.90064 9.4854C9.03249 9.43153 9.15225 9.35187 9.2529 9.25109C9.35356 9.15032 9.43307 9.03046 9.48678 8.89854C9.5405 8.76663 9.56733 8.62532 9.5657 8.48289C9.56407 8.34047 9.53402 8.19981 9.4773 8.06916C9.42059 7.93851 9.33835 7.8205 9.23542 7.72205C9.09411 7.57851 8.91432 7.47887 8.7177 7.43512C8.52109 7.39138 8.31601 7.40538 8.12717 7.47546L4.44217 3.79046L12.133 4.61546C12.3954 4.64223 12.6444 4.74493 12.8494 4.911C13.0543 5.07706 13.2065 5.29928 13.2871 5.55046L15.0572 10.9221L10.923 15.0563L5.55042 13.2862ZM16.2837 10.9854C16.4445 10.826 16.649 10.7178 16.8712 10.6745C17.0935 10.6312 17.3236 10.6547 17.5325 10.7421C17.7414 10.8295 17.9198 10.9768 18.045 11.1655C18.1702 11.3541 18.2368 11.5757 18.2362 11.8021C18.2359 11.9523 18.2058 12.1009 18.1477 12.2393C18.0897 12.3778 18.0048 12.5033 17.8979 12.6088L12.6078 17.898C12.3898 18.1073 12.0993 18.2242 11.797 18.2242C11.4948 18.2242 11.2043 18.1073 10.9863 17.898C10.7742 17.683 10.6553 17.3932 10.6553 17.0913C10.6553 16.7894 10.7742 16.4996 10.9863 16.2846L16.2837 10.9854Z" fill="#735DFF"/>
</svg>
