<svg width="22" height="22" viewBox="0 0 22 22" fill="none" xmlns="http://www.w3.org/2000/svg">
<path d="M13.2734 2.20693C13.1669 1.74757 12.9016 1.34057 12.5243 1.05775C12.147 0.774931 11.6819 0.634476 11.2111 0.661169C10.7404 0.687861 10.2941 0.879984 9.95122 1.20364C9.60829 1.52729 9.39071 1.96167 9.33686 2.43012C9.28301 2.89858 9.39636 3.37099 9.65691 3.76401C9.91745 4.15703 10.3084 4.44539 10.7609 4.57821C11.2133 4.71103 11.6982 4.67976 12.1298 4.48993C12.5614 4.3001 12.9122 3.96391 13.1201 3.54068C14.3857 3.82889 15.5623 4.42065 16.5482 5.26493C17.5342 6.10921 18.3 7.18066 18.7796 8.38687L19.9999 7.90699C19.435 6.4763 18.5254 5.20734 17.3519 4.21292C16.1784 3.21849 14.7774 2.52941 13.2734 2.20693ZM11.3332 3.33306C11.2439 3.33593 11.1549 3.32081 11.0715 3.2886C10.9882 3.2564 10.9121 3.20776 10.8479 3.14559C10.7837 3.08341 10.7327 3.00896 10.6978 2.92666C10.6629 2.84437 10.645 2.7559 10.645 2.66652C10.645 2.57715 10.6629 2.48868 10.6978 2.40639C10.7327 2.32409 10.7837 2.24964 10.8479 2.18746C10.9121 2.12529 10.9882 2.07665 11.0715 2.04445C11.1549 2.01224 11.2439 1.99712 11.3332 1.99999C11.5101 1.99999 11.6797 2.07025 11.8048 2.19532C11.9299 2.32038 12.0001 2.49 12.0001 2.66687C12.0001 2.84373 11.9299 3.01336 11.8048 3.13842C11.6797 3.26348 11.5101 3.33306 11.3332 3.33306ZM8.39969 3.88718L7.90675 2.66756C6.47606 3.23244 5.2071 4.14206 4.21267 5.31556C3.21825 6.48906 2.52917 7.89007 2.20669 9.39406C1.74732 9.50051 1.34032 9.7658 1.0575 10.1431C0.774687 10.5204 0.634232 10.9855 0.660924 11.4563C0.687617 11.9271 0.87974 12.3733 1.20339 12.7162C1.52704 13.0591 1.96142 13.2767 2.42988 13.3306C2.89833 13.3844 3.37075 13.2711 3.76377 13.0105C4.15679 12.75 4.44515 12.359 4.57797 11.9065C4.71078 11.4541 4.67952 10.9693 4.48969 10.5376C4.29986 10.106 3.96367 9.75527 3.54044 9.54737C3.82983 8.28022 4.42352 7.10263 5.27017 6.11642C6.11683 5.13022 7.19096 4.36509 8.39969 3.88718ZM2.66594 12.0011C2.57836 12.0011 2.49164 11.9838 2.41073 11.9503C2.32983 11.9168 2.25631 11.8677 2.19439 11.8057C2.13246 11.7438 2.08334 11.6703 2.04982 11.5894C2.01631 11.5085 1.99906 11.4218 1.99906 11.3342C1.99906 11.2466 2.01631 11.1599 2.04982 11.079C2.08334 10.9981 2.13246 10.9246 2.19439 10.8626C2.25631 10.8007 2.32983 10.7516 2.41073 10.7181C2.49164 10.6846 2.57836 10.6673 2.66594 10.6673C2.8428 10.6673 3.01242 10.7376 3.13749 10.8626C3.26255 10.9877 3.33281 11.1573 3.33281 11.3342C3.33281 11.511 3.26255 11.6807 3.13749 11.8057C3.01242 11.9308 2.8428 12.0011 2.66594 12.0011ZM11.3332 18.0009C10.9613 18.0021 10.5971 18.1069 10.2815 18.3037C9.96585 18.5004 9.71131 18.7812 9.54644 19.1146C8.28059 18.8264 7.10385 18.2346 6.11775 17.3902C5.13165 16.5458 4.36579 15.4742 3.88625 14.2677L2.66662 14.7607C3.23335 16.1938 4.14602 17.4643 5.3232 18.4589C6.50037 19.4535 7.90545 20.1412 9.41306 20.4607C9.49966 20.8278 9.68824 21.1629 9.95704 21.4274C10.2259 21.6919 10.5639 21.875 10.9323 21.9556C11.3007 22.0363 11.6844 22.0112 12.0391 21.8832C12.3939 21.7552 12.7052 21.5296 12.9373 21.2324C13.1693 20.9351 13.3126 20.5783 13.3506 20.2031C13.3887 19.8279 13.3199 19.4496 13.1522 19.1118C12.9846 18.774 12.7248 18.4905 12.403 18.2939C12.0812 18.0974 11.7103 17.9958 11.3332 18.0009ZM11.3332 20.6677C11.1564 20.6677 10.9868 20.5974 10.8617 20.4724C10.7366 20.3473 10.6664 20.1777 10.6664 20.0008C10.6664 19.8239 10.7366 19.6543 10.8617 19.5293C10.9868 19.4042 11.1564 19.3339 11.3332 19.3339C11.5101 19.3339 11.6797 19.4042 11.8048 19.5293C11.9299 19.6543 12.0001 19.8239 12.0001 20.0008C12.0001 20.1777 11.9299 20.3473 11.8048 20.4724C11.6797 20.5974 11.5101 20.6677 11.3332 20.6677ZM21.9998 11.3335C22.001 10.9765 21.9067 10.6257 21.7267 10.3175C21.5466 10.0093 21.2874 9.75487 20.9758 9.58061C20.6643 9.40636 20.3118 9.31863 19.9549 9.32653C19.5981 9.33443 19.2498 9.43766 18.9463 9.62553C18.6427 9.8134 18.395 10.0791 18.2288 10.3949C18.0625 10.7108 17.9838 11.0654 18.0008 11.422C18.0179 11.7786 18.13 12.1241 18.3255 12.4227C18.5211 12.7213 18.793 12.9622 19.113 13.1203C18.8247 14.386 18.2329 15.5626 17.3885 16.5486C16.5441 17.5346 15.4725 18.3003 14.2661 18.7798L14.7597 20.0001C16.1929 19.4334 17.4634 18.5207 18.458 17.3435C19.4526 16.1664 20.1403 14.7613 20.4598 13.2537C20.8938 13.151 21.281 12.9063 21.5601 12.5585C21.8391 12.2106 21.9939 11.7794 21.9998 11.3335ZM19.9992 12.0004C19.8223 12.0004 19.6527 11.9301 19.5276 11.805C19.4026 11.68 19.3323 11.5104 19.3323 11.3335C19.3323 11.1566 19.4026 10.987 19.5276 10.8619C19.6527 10.7369 19.8223 10.6666 19.9992 10.6666C20.1761 10.6666 20.3457 10.7369 20.4707 10.8619C20.5958 10.987 20.6661 11.1566 20.6661 11.3335C20.6661 11.5104 20.5958 11.68 20.4707 11.805C20.3457 11.9301 20.1761 12.0004 19.9992 12.0004Z" fill="#00A884"/>
<path d="M13.1929 11.2406C13.5722 10.8703 13.8325 10.3952 13.9406 9.8762C14.0486 9.35718 13.9996 8.81773 13.7996 8.32673C13.5996 7.83574 13.2579 7.41548 12.818 7.11963C12.378 6.82378 11.8599 6.66577 11.3298 6.66577C10.7996 6.66577 10.2815 6.82378 9.84156 7.11963C9.40164 7.41548 9.05987 7.83574 8.85991 8.32673C8.65995 8.81773 8.61088 9.35718 8.71894 9.8762C8.82701 10.3952 9.08732 10.8703 9.46664 11.2406C9.01524 11.5457 8.64548 11.9568 8.38972 12.4379C8.13396 12.919 7.99998 13.4554 7.99951 14.0003V15.3333H14.6662V13.9996C14.665 13.4542 14.5301 12.9174 14.2733 12.4363C14.0164 11.9551 13.6454 11.545 13.1929 11.2406ZM9.99945 9.33282C9.99945 9.15767 10.0339 8.98424 10.101 8.82242C10.168 8.6606 10.2662 8.51357 10.3901 8.38972C10.5139 8.26587 10.661 8.16762 10.8228 8.1006C10.9846 8.03357 11.158 7.99907 11.3332 7.99907C11.5084 7.99907 11.6818 8.03357 11.8436 8.1006C12.0054 8.16762 12.1525 8.26587 12.2763 8.38972C12.4002 8.51357 12.4984 8.6606 12.5654 8.82242C12.6325 8.98424 12.6669 9.15767 12.6669 9.33282C12.6669 9.68655 12.5264 10.0258 12.2763 10.2759C12.0262 10.5261 11.6869 10.6666 11.3332 10.6666C10.9795 10.6666 10.6402 10.5261 10.3901 10.2759C10.14 10.0258 9.99945 9.68655 9.99945 9.33282ZM9.33257 13.9996C9.32765 13.7338 9.37574 13.4697 9.47405 13.2227C9.57236 12.9757 9.71892 12.7507 9.90515 12.561C10.0914 12.3713 10.3136 12.2206 10.5587 12.1177C10.8038 12.0148 11.067 11.9619 11.3329 11.9619C11.5987 11.9619 11.8619 12.0148 12.107 12.1177C12.3522 12.2206 12.5743 12.3713 12.7606 12.561C12.9468 12.7507 13.0933 12.9757 13.1917 13.2227C13.29 13.4697 13.3381 13.7338 13.3331 13.9996H9.33257Z" fill="#00A884"/>
</svg>
