<svg width="22" height="22" viewBox="0 0 22 22" fill="none" xmlns="http://www.w3.org/2000/svg">
<path d="M8.25 2.75H3.66667C3.42355 2.75 3.19039 2.84658 3.01849 3.01849C2.84658 3.19039 2.75 3.42355 2.75 3.66667V8.25C2.75 8.49312 2.84658 8.72627 3.01849 8.89818C3.19039 9.07009 3.42355 9.16667 3.66667 9.16667H8.25C8.49312 9.16667 8.72627 9.07009 8.89818 8.89818C9.07009 8.72627 9.16667 8.49312 9.16667 8.25V3.66667C9.16667 3.42355 9.07009 3.19039 8.89818 3.01849C8.72627 2.84658 8.49312 2.75 8.25 2.75ZM8.25 12.8333H3.66667C3.42355 12.8333 3.19039 12.9299 3.01849 13.1018C2.84658 13.2737 2.75 13.5069 2.75 13.75V18.3333C2.75 18.5764 2.84658 18.8096 3.01849 18.9815C3.19039 19.1534 3.42355 19.25 3.66667 19.25H8.25C8.49312 19.25 8.72627 19.1534 8.89818 18.9815C9.07009 18.8096 9.16667 18.5764 9.16667 18.3333V13.75C9.16667 13.5069 9.07009 13.2737 8.89818 13.1018C8.72627 12.9299 8.49312 12.8333 8.25 12.8333ZM16.0417 9.16667C16.463 9.16667 16.8802 9.08368 17.2694 8.92245C17.6587 8.76121 18.0124 8.52489 18.3103 8.22697C18.6082 7.92905 18.8445 7.57536 19.0058 7.18611C19.167 6.79686 19.25 6.37966 19.25 5.95833C19.25 5.53701 19.167 5.11981 19.0058 4.73056C18.8445 4.3413 18.6082 3.98762 18.3103 3.6897C18.0124 3.39178 17.6587 3.15545 17.2694 2.99422C16.8802 2.83299 16.463 2.75 16.0417 2.75C15.1908 2.75 14.3747 3.08802 13.773 3.6897C13.1714 4.29138 12.8333 5.10743 12.8333 5.95833C12.8333 6.80924 13.1714 7.62529 13.773 8.22697C14.3747 8.82865 15.1908 9.16667 16.0417 9.16667ZM18.3333 12.8333H13.75C13.5069 12.8333 13.2737 12.9299 13.1018 13.1018C12.9299 13.2737 12.8333 13.5069 12.8333 13.75V18.3333C12.8333 18.5764 12.9299 18.8096 13.1018 18.9815C13.2737 19.1534 13.5069 19.25 13.75 19.25H18.3333C18.5764 19.25 18.8096 19.1534 18.9815 18.9815C19.1534 18.8096 19.25 18.5764 19.25 18.3333V13.75C19.25 13.5069 19.1534 13.2737 18.9815 13.1018C18.8096 12.9299 18.5764 12.8333 18.3333 12.8333Z" stroke="#735DFF" stroke-linejoin="round"/>
</svg>
