<svg width="22" height="22" viewBox="0 0 22 22" fill="none" xmlns="http://www.w3.org/2000/svg">
<path d="M5.14784 18.3333C4.73717 18.3333 4.38762 18.1891 4.09917 17.9006C3.81073 17.6122 3.6665 17.2629 3.6665 16.8529V5.14704C3.6665 4.7376 3.81073 4.38835 4.09917 4.09929C4.38762 3.81085 4.73717 3.66663 5.14784 3.66663H16.8528C17.2622 3.66663 17.6114 3.81085 17.9005 4.09929C18.1889 4.38774 18.3332 4.73729 18.3332 5.14796V16.8529C18.3332 17.2623 18.1889 17.6116 17.9005 17.9006C17.6121 18.1891 17.2628 18.3333 16.8528 18.3333H5.14784ZM11.4582 11.4583V17.4166H16.8528C17.0171 17.4166 17.1522 17.3638 17.2579 17.258C17.3636 17.1523 17.4165 17.0173 17.4165 16.8529V11.4583H11.4582ZM11.4582 10.5416H17.4165V5.14796C17.4165 4.98296 17.3636 4.8476 17.2579 4.74188C17.1522 4.63615 17.0171 4.58329 16.8528 4.58329H11.4582V10.5416ZM10.5415 10.5416V4.58329H5.14784C4.98284 4.58329 4.84748 4.63615 4.74175 4.74188C4.63603 4.8476 4.58317 4.98296 4.58317 5.14796V10.5416H10.5415ZM10.5415 11.4583H4.58317V16.8529C4.58317 17.0173 4.63603 17.1523 4.74175 17.258C4.84748 17.3638 4.98284 17.4166 5.14784 17.4166H10.5415V11.4583Z" fill="#07A95C"/>
</svg>
