<svg width="22" height="22" viewBox="0 0 22 22" fill="none" xmlns="http://www.w3.org/2000/svg">
<path d="M11 4.125C11.9492 4.125 12.7188 3.35549 12.7188 2.40625C12.7188 1.45701 11.9492 0.6875 11 0.6875C10.0508 0.6875 9.28125 1.45701 9.28125 2.40625C9.28125 3.35549 10.0508 4.125 11 4.125Z" stroke="#CF1C1C" stroke-linejoin="round"/>
<path d="M8.77559 11.7923C8.9002 11.0163 8.95606 10.266 8.75411 9.74742C8.58223 9.3014 8.2084 9.05175 7.75723 8.8816L3.78133 7.59511C3.26571 7.42324 2.78403 7.13535 2.75008 6.56644C2.70711 5.83597 3.35165 5.36332 3.99618 5.53519C3.99618 5.53519 7.77743 6.87324 11.0001 6.87324C14.2227 6.87324 17.961 5.54121 17.961 5.54121C18.7345 5.32636 19.2501 5.92792 19.2501 6.56343C19.2501 7.17402 18.7774 7.38886 18.2188 7.5921L14.4376 8.96324C14.0938 9.09214 13.5352 9.34996 13.3204 9.74441C13.0626 10.2063 13.1056 11.0133 13.2302 11.7893L13.4837 13.0625L15.0911 20.105C15.2114 20.6701 14.8204 21.1982 14.2575 21.297C13.6947 21.3958 13.2345 21.0117 13.0677 20.4651L11.4538 15.4837C11.3762 15.2448 11.3075 15.0032 11.2476 14.7589L11.0001 13.75L10.7723 14.6802C10.7002 14.9767 10.6171 15.27 10.5231 15.5602L8.93758 20.4608C8.76571 21.013 8.31454 21.3954 7.75164 21.297C7.18875 21.1986 6.78915 20.6271 6.91547 20.105L8.52207 13.0655L8.77559 11.7923Z" stroke="#CF1C1C" stroke-linejoin="round"/>
</svg>
