<svg width="22" height="22" viewBox="0 0 22 22" fill="none" xmlns="http://www.w3.org/2000/svg">
<path d="M17.875 12.0312H11C10.9088 12.0312 10.8214 12.0674 10.7569 12.1319C10.6925 12.1964 10.6562 12.2838 10.6562 12.375V17.3121C10.6561 17.3926 10.6843 17.4706 10.7358 17.5325C10.7873 17.5943 10.8589 17.6362 10.9381 17.6507L17.8131 18.9011C17.8336 18.9045 17.8543 18.9062 17.875 18.9062C17.9554 18.9061 18.0333 18.8778 18.095 18.8263C18.1337 18.7941 18.1648 18.7537 18.1862 18.7081C18.2076 18.6625 18.2187 18.6128 18.2188 18.5625V12.375C18.2188 12.2838 18.1825 12.1964 18.1181 12.1319C18.0536 12.0674 17.9662 12.0312 17.875 12.0312ZM17.5312 18.1508L11.3438 17.0259V12.7187H17.5312V18.1508ZM8.25 12.0312H2.75C2.65883 12.0312 2.5714 12.0674 2.50693 12.1319C2.44247 12.1964 2.40625 12.2838 2.40625 12.375V15.8125C2.40614 15.893 2.4343 15.971 2.48581 16.0328C2.53733 16.0947 2.60893 16.1366 2.68813 16.1511L8.18812 17.1505C8.20849 17.1546 8.22922 17.1567 8.25 17.1565C8.34117 17.1565 8.4286 17.1203 8.49307 17.0558C8.55753 16.9914 8.59375 16.9039 8.59375 16.8128V12.375C8.59375 12.2838 8.55753 12.1964 8.49307 12.1319C8.4286 12.0674 8.34117 12.0312 8.25 12.0312ZM7.90625 16.4003L3.09375 15.5254V12.7187H7.90625V16.4003ZM18.095 3.17363C18.0564 3.14127 18.0111 3.11779 17.9624 3.10487C17.9137 3.09195 17.8627 3.0899 17.8131 3.09886L10.9381 4.34925C10.8589 4.36375 10.7873 4.40558 10.7358 4.46746C10.6843 4.52934 10.6561 4.60733 10.6562 4.68785V9.62496C10.6562 9.71612 10.6925 9.80356 10.7569 9.86802C10.8214 9.93249 10.9088 9.96871 11 9.96871H17.875C17.9662 9.96871 18.0536 9.93249 18.1181 9.86802C18.1825 9.80356 18.2188 9.71612 18.2188 9.62496V3.43746C18.2187 3.3871 18.2076 3.33737 18.1862 3.29178C18.1648 3.24619 18.1337 3.20586 18.095 3.17363ZM17.5312 9.28121H11.3438V4.97402L17.5312 3.8491V9.28121ZM8.18812 4.84941L2.68813 5.84886C2.60893 5.86335 2.53733 5.90519 2.48581 5.96707C2.4343 6.02894 2.40614 6.10694 2.40625 6.18746V9.62496C2.40625 9.71612 2.44247 9.80356 2.50693 9.86802C2.5714 9.93249 2.65883 9.96871 2.75 9.96871H8.25C8.34117 9.96871 8.4286 9.93249 8.49307 9.86802C8.55753 9.80356 8.59375 9.71612 8.59375 9.62496V5.18714C8.59369 5.1368 8.58257 5.08707 8.56118 5.04149C8.53979 4.99592 8.50865 4.95559 8.46995 4.92338C8.43126 4.89116 8.38596 4.86784 8.33726 4.85506C8.28856 4.84227 8.23765 4.84035 8.18812 4.84941ZM7.90625 9.28121H3.09375V6.47449L7.90625 5.59964V9.28121Z" fill="#CF1C1C"/>
</svg>
