<svg width="22" height="22" viewBox="0 0 22 22" fill="none" xmlns="http://www.w3.org/2000/svg">
<path d="M13.8669 13.0625L12.0862 14.8431L13.0625 15.8125L15.8125 13.0625L13.0625 10.3125L12.0862 11.2819L13.8669 13.0625ZM8.13312 13.0625L9.91375 11.2819L8.9375 10.3125L6.1875 13.0625L8.9375 15.8125L9.91375 14.8431L8.13312 13.0625Z" fill="#735DFF"/>
<path d="M6.1875 6.1875C6.5672 6.1875 6.875 5.8797 6.875 5.5C6.875 5.1203 6.5672 4.8125 6.1875 4.8125C5.8078 4.8125 5.5 5.1203 5.5 5.5C5.5 5.8797 5.8078 6.1875 6.1875 6.1875Z" fill="#735DFF"/>
<path d="M4.125 6.1875C4.5047 6.1875 4.8125 5.8797 4.8125 5.5C4.8125 5.1203 4.5047 4.8125 4.125 4.8125C3.7453 4.8125 3.4375 5.1203 3.4375 5.5C3.4375 5.8797 3.7453 6.1875 4.125 6.1875Z" fill="#735DFF"/>
<path d="M19.25 2.75H2.75C1.99169 2.75 1.375 3.36738 1.375 4.125V17.875C1.375 18.6333 1.99169 19.25 2.75 19.25H19.25C20.0083 19.25 20.625 18.6333 20.625 17.875V4.125C20.625 3.36738 20.0083 2.75 19.25 2.75ZM19.25 4.125V6.875H2.75V4.125H19.25ZM2.75 17.875V8.25H19.25V17.875H2.75Z" fill="#735DFF"/>
</svg>
