<svg width="39" height="34" viewBox="0 0 39 34" fill="none" xmlns="http://www.w3.org/2000/svg">
<path d="M20.5654 0.279724C21.0945 0.279724 21.5692 0.605546 21.7598 1.09906L26.5439 13.5024L26.7021 13.892C26.8171 14.193 26.9254 14.5203 27.0312 14.8725C27.1354 14.537 27.2414 14.1907 27.3457 13.8334L27.3477 13.8256L31.4561 1.16449C31.6274 0.637073 32.1192 0.279724 32.6738 0.279724H36.8164C37.7138 0.279724 38.3325 1.17991 38.0117 2.01801L29.8672 23.2934L29.8682 23.2944L26.5547 32.476C26.3716 32.9834 25.89 33.3217 25.3506 33.3217H21.8945C20.9942 33.3217 20.3748 32.4167 20.7012 31.5776L23.9922 23.1147L15.2803 2.04926C14.9318 1.20657 15.552 0.279724 16.4639 0.279724H20.5654Z" fill="white" stroke="black" stroke-width="0.56"/>
<path d="M6.08984 0.279724C6.63444 0.279894 7.11982 0.624747 7.29883 1.1391L13.1816 18.0541C13.516 19.0106 13.7952 19.8615 14.0195 20.6059L14.2021 21.1381C14.3768 21.6657 14.5279 22.1765 14.6553 22.6703C14.7086 22.8393 14.7583 23.0092 14.8096 23.1782C14.9836 22.5569 15.1696 21.9186 15.373 21.2651C15.6532 20.3652 16.0034 19.2958 16.4229 18.0571L21.9775 1.16058C22.1502 0.635349 22.6414 0.279724 23.1943 0.279724H27.6641C28.5516 0.279926 29.1697 1.16204 28.8672 1.99652L17.8193 32.478C17.6358 32.9845 17.154 33.3217 16.6152 33.3217H12.5312C11.9914 33.3217 11.509 32.983 11.3262 32.475L0.357422 1.99359C0.0572484 1.15949 0.675052 0.279724 1.56152 0.279724H6.08984Z" fill="black" stroke="black" stroke-width="0.56"/>
</svg>
